<?xml version="1.0"?>
<svg version="1.1" xmlns="http://www.w3.org/2000/svg" width="2814" height="1536">
<defs><mask id="aCut" maskUnits="userSpaceOnUse" x="0" y="0" width="2814" height="1536">
<rect x="0" y="0" width="2814" height="1536" fill="#FFFFFF"></rect>
<path d="M0 0 C2.3985964 2.16504516 3.66434971 4.0731799 4.89770508 7.04980469 C5.23848587 7.86205505 5.57926666 8.67430542 5.93037415 9.51116943 C6.28979599 10.38920227 6.64921783 11.26723511 7.01953125 12.171875 C7.40058517 13.08648499 7.7816391 14.00109497 8.17424011 14.94342041 C9.39397062 17.87610682 10.60323937 20.81298325 11.8125 23.75 C12.61457514 25.6812635 13.41730287 27.61225611 14.22070312 29.54296875 C16.49687581 35.02196183 18.75305743 40.50896267 21 46 C21.32514587 46.792854 21.65029175 47.58570801 21.98529053 48.40258789 C22.85262483 50.52186214 23.71470884 52.64316744 24.57421875 54.765625 C25.04819092 55.93383789 25.52216309 57.10205078 26.01049805 58.30566406 C27 61 27 61 27 63 C9.51 63 -7.98 63 -26 63 C-24.17451674 57.52355022 -22.41475538 52.38100101 -20.1796875 47.11328125 C-19.91944794 46.49673172 -19.65920837 45.88018219 -19.39108276 45.24494934 C-18.55534864 43.26619897 -17.71519405 41.28936017 -16.875 39.3125 C-15.70920377 36.55672054 -14.54582234 33.79992512 -13.3828125 31.04296875 C-13.09470703 30.36073242 -12.80660156 29.67849609 -12.50976562 28.97558594 C-9.48045921 21.79086885 -6.53863285 14.57088561 -3.62841797 7.3371582 C-3.29213379 6.50659912 -2.95584961 5.67604004 -2.609375 4.8203125 C-2.32030273 4.10117676 -2.03123047 3.38204102 -1.73339844 2.64111328 C-1 1 -1 1 0 0 Z " fill="#000000" transform="translate(1326,1297)"></path>
</mask></defs>
<g mask="url(#aCut)">
<path d="M0 0 C4.23388285 2.80866814 8.53427391 5.51291703 12.82666016 8.23095703 C14.69930637 9.42066718 16.57169709 10.61077957 18.44384766 11.80126953 C19.88002441 12.71440918 19.88002441 12.71440918 21.34521484 13.64599609 C34.84463613 22.23734086 48.31860886 30.86663378 61.72290039 39.60571289 C69.534255 44.69244947 77.38807473 49.71208619 85.24267578 54.73168945 C93.29039282 59.87598229 101.31773848 65.05060215 109.33056641 70.24902344 C112.82742426 72.51667759 116.3272401 74.77975972 119.82666016 77.04345703 C121.24333991 77.96010347 122.6600066 78.8767701 124.07666016 79.79345703 C124.77791016 80.24720703 125.47916016 80.70095703 126.20166016 81.16845703 C149.57666016 96.29345703 149.57666016 96.29345703 151.69970703 97.66723633 C153.12283176 98.58805292 154.54600923 99.50878801 155.96923828 100.42944336 C159.41252387 102.65696613 162.85502144 104.88568102 166.29541016 107.11767578 C174.72341597 112.58265452 183.17520365 118.00931076 191.63916016 123.41845703 C203.37446569 130.92001115 215.05772592 138.49882823 226.72412109 146.10693359 C229.15359382 147.6907724 231.58379179 149.27349297 234.01416016 150.85595703 C234.81942139 151.38108887 235.62468262 151.9062207 236.4543457 152.44726562 C241.21299513 155.54352303 245.99227589 158.6041798 250.79150391 161.63720703 C251.89727783 162.3380542 253.00305176 163.03890137 254.14233398 163.76098633 C256.28351304 165.11646087 258.42769478 166.46720873 260.57543945 167.81225586 C279.93993525 180.08455417 294.06853578 194.73762903 299.32666016 217.54345703 C299.71807302 221.15765663 299.74130095 224.73087429 299.72106934 228.36381531 C299.72716044 229.40716547 299.73325154 230.45051564 299.73952723 231.52548248 C299.75608353 234.9973258 299.75139182 238.46879939 299.74658203 241.94067383 C299.75392671 244.43995034 299.7625141 246.93922347 299.77224731 249.43849182 C299.79213096 255.50886357 299.79784608 261.57909176 299.79605943 267.64948335 C299.79474807 272.58858243 299.79857493 277.52765187 299.8059845 282.46674538 C299.80808387 283.89340474 299.81018147 285.3200641 299.81227732 286.74672347 C299.81384261 287.81211789 299.81384261 287.81211789 299.81543952 288.89903543 C299.83431493 302.31264242 299.83330029 315.72619465 299.8264702 329.13980941 C299.82089943 341.38319398 299.84170499 353.626369 299.87483066 365.86970463 C299.90865128 378.46861988 299.92372543 391.06743499 299.91911364 403.66639644 C299.91687703 410.72867599 299.92199253 417.79076201 299.94700623 424.85300255 C299.97034719 431.49911279 299.96733531 438.14486212 299.9470787 444.79100609 C299.94368115 447.22129151 299.94870314 449.65160658 299.96306229 452.08185196 C300.07697567 472.80177665 297.39506268 489.55859207 282.70556641 505.19189453 C264.91485928 522.77811077 244.78397208 523.99660825 221.1242981 523.93113708 C218.66523492 523.9353139 216.20617367 523.94079331 213.74711597 523.9474569 C208.41716142 523.95887821 203.08732445 523.96105674 197.75737 523.95490646 C189.83121739 523.94578503 181.90514571 523.9538717 173.97899929 523.9651977 C159.81921869 523.98483311 145.65947476 523.98721804 131.4996838 523.9820025 C119.10675723 523.97744018 106.71384514 523.97805093 94.32091904 523.98384285 C92.65667775 523.98459973 90.99243646 523.98535571 89.32819518 523.9861108 C86.82014287 523.98725602 84.31209057 523.98840591 81.80403827 523.98957004 C58.49587916 524.00027027 35.18772487 524.00500516 11.87956429 523.99709988 C11.00150729 523.9968027 10.12345029 523.99650553 9.21878551 523.99619935 C2.08895922 523.99375057 -5.04086701 523.99113891 -12.17069324 523.98851522 C-39.97937833 523.97841334 -67.78800302 523.98676901 -95.59667969 524.01000977 C-126.86235059 524.03609758 -158.12798515 524.04892629 -189.39366734 524.04182202 C-192.72910062 524.04110599 -196.0645339 524.0404316 -199.39996719 524.03978157 C-200.63180906 524.03952686 -200.63180906 524.03952686 -201.88853663 524.039267 C-214.26997241 524.03696673 -226.65137438 524.04492794 -239.03280258 524.05807304 C-253.11779469 524.0730004 -267.20270769 524.07380584 -281.28769813 524.05600213 C-289.1629207 524.04645672 -297.03795861 524.04783789 -304.91316875 524.06523682 C-310.80335669 524.07700082 -316.69339235 524.06770729 -322.58357061 524.05041445 C-324.95892499 524.04665411 -327.33430182 524.0495773 -329.7096362 524.0600261 C-351.05525984 524.14721339 -369.23448922 522.20854696 -385.39599609 506.81298828 C-386.14751953 506.06404297 -386.89904297 505.31509766 -387.67333984 504.54345703 C-388.63046875 503.62113281 -388.63046875 503.62113281 -389.60693359 502.68017578 C-400.17011927 491.69352163 -403.98538367 477.81748311 -403.94749451 462.97743225 C-403.95273119 461.94930386 -403.95796786 460.92117548 -403.96336323 459.86189169 C-403.9782995 456.43547571 -403.97906699 453.0092099 -403.97973633 449.58276367 C-403.98736228 447.11805979 -403.99579052 444.65335829 -404.00495911 442.18865967 C-404.02687249 435.50430198 -404.03572175 428.82000423 -404.04078555 422.1356194 C-404.04405256 417.95321068 -404.05058116 413.77081107 -404.05778694 409.58840752 C-404.07734508 397.98413549 -404.09375311 386.37987188 -404.09666348 374.77558231 C-404.09685104 374.03412087 -404.09703861 373.29265943 -404.09723187 372.52872946 C-404.09759809 371.02591606 -404.09796179 369.52310266 -404.09832298 368.02028925 C-404.0985972 366.90145091 -404.0985972 366.90145091 -404.09887695 365.76000977 C-404.0990575 365.01319533 -404.09923805 364.26638089 -404.09942407 363.49693572 C-404.10296068 351.4139501 -404.1299544 339.33114326 -404.16737484 327.24821956 C-404.20558098 314.81092174 -404.22482186 302.37371232 -404.22512299 289.93635458 C-404.2257049 282.96617328 -404.23402348 275.99620514 -404.26312065 269.02607918 C-404.29039843 262.46206458 -404.29143544 255.89839563 -404.27546501 249.33432007 C-404.27366042 246.93754086 -404.28025067 244.54073681 -404.29628372 242.14401054 C-404.40696939 224.50961871 -403.55487557 207.25943867 -392.67333984 192.54345703 C-392.11130859 191.72876953 -391.54927734 190.91408203 -390.97021484 190.07470703 C-382.9642393 179.17581595 -371.59534884 172.31890003 -360.23974609 165.37158203 C-354.83758939 162.05347553 -349.53945602 158.57862501 -344.23583984 155.10595703 C-343.24970703 154.46086182 -342.26357422 153.8157666 -341.24755859 153.15112305 C-339.29936125 151.87664507 -337.35127929 150.6019907 -335.40332031 149.32714844 C-329.50525545 145.47352101 -323.58470672 141.65462226 -317.66650391 137.83203125 C-315.6857949 136.55150918 -313.70666581 135.26858201 -311.72802734 133.98486328 C-302.14101152 127.76739128 -292.52144206 121.6017621 -282.89404297 115.44702148 C-276.31502741 111.23938396 -269.74915342 107.01256113 -263.19799805 102.76171875 C-256.93633919 98.70338908 -250.64854058 94.68628266 -244.36083984 90.66845703 C-234.18955225 84.16732437 -224.05585716 77.61084201 -213.94189453 71.02099609 C-203.13076083 63.97956463 -192.27853603 57.00573406 -181.38867188 50.08666992 C-173.24952191 44.91452486 -165.12642573 39.71757198 -157.00708008 34.5144043 C-151.95598522 31.278932 -146.90107277 28.04994029 -141.83349609 24.84033203 C-133.28684489 19.42639442 -124.76699735 13.98626368 -116.36083984 8.35595703 C-115.6321167 7.86869141 -114.90339355 7.38142578 -114.15258789 6.87939453 C-109.82710132 3.98655945 -109.82710132 3.98655945 -105.50683594 1.0859375 C-68.28944026 -23.87950831 -37.49570523 -25.14805257 0 0 Z " fill="#0D0D0D" transform="translate(1460.67333984375,659.45654296875)"></path>
<path d="M0 0 C1.02416016 -0.00322266 2.04832031 -0.00644531 3.10351562 -0.00976562 C11.69751395 0.05063948 19.21206758 1.44537717 27.25 4.5 C28.23613281 4.86480469 29.22226563 5.22960937 30.23828125 5.60546875 C40.05777879 9.8248175 49.0540406 16.21914185 58 22 C60.20543703 23.41842308 62.41116875 24.83638807 64.6171875 26.25390625 C65.69194336 26.94500488 66.76669922 27.63610352 67.87402344 28.34814453 C72.11141364 31.06523423 76.36558852 33.7551072 80.625 36.4375 C87.40750124 40.710977 94.17637767 45.00527564 100.9375 49.3125 C110.92134769 55.67155003 120.92523857 61.99830896 130.9375 68.3125 C141.88843812 75.21866359 152.82577451 82.14542749 163.74536133 89.10107422 C169.634661 92.8511094 175.53206801 96.58792768 181.4375 100.3125 C191.02184147 106.35824015 200.58160651 112.44229962 210.13916016 118.53027344 C214.73773762 121.45904813 219.33768027 124.38567691 223.9375 127.3125 C225.77084004 128.47915613 227.60417337 129.6458228 229.4375 130.8125 C230.345 131.39 231.2525 131.9675 232.1875 132.5625 C240.4375 137.8125 240.4375 137.8125 243.18823242 139.56298828 C245.01909753 140.72806948 246.8499894 141.89310864 248.6809082 143.05810547 C253.30222713 145.99868321 257.9230592 148.94002092 262.54296875 151.8828125 C271.93550392 157.86465054 281.33586673 163.83348022 290.75463867 169.77392578 C297.76409946 174.19718013 304.75549422 178.64857977 311.74609375 183.1015625 C317.63516667 186.85140697 323.53228596 190.58813229 329.4375 194.3125 C337.22048144 199.22115946 344.98527456 204.15795306 352.74609375 209.1015625 C358.6351669 212.85140712 364.53231615 216.58808418 370.4375 220.3125 C381.89700384 227.54108035 393.32179513 234.82406556 404.74902344 242.10351562 C407.54083172 243.88179936 410.33290648 245.65966416 413.125 247.4375 C414.4877002 248.30580444 414.4877002 248.30580444 415.87792969 249.19165039 C420.27199168 251.98933974 424.67156065 254.7774268 429.0859375 257.54296875 C450.56891116 271.00433957 470.27299247 283.49558673 476.51701355 309.74911499 C478.39816491 319.66170487 478.24667288 329.55302588 478.23828125 339.6015625 C478.24217655 341.55585825 478.24651291 343.51015317 478.25126648 345.46444702 C478.25868863 349.5407792 478.25846551 353.61702469 478.25317383 357.69335938 C478.24736758 362.89586238 478.26435768 368.09801071 478.2875185 373.30045509 C478.30230076 377.32925461 478.30312172 381.3579694 478.30000877 385.38679123 C478.30051917 387.30438314 478.30570342 389.22198015 478.31582069 391.13954544 C478.38421814 405.9062375 477.61830234 418.91279064 467.05078125 430.35546875 C458.16117437 438.54648177 448.46032867 441.80634593 436.4453125 441.54296875 C425.63126468 440.83246895 417.90825128 435.5241561 409.07714844 429.71826172 C406.96793595 428.3324966 404.84925449 426.9626665 402.7265625 425.59765625 C398.45528741 422.84858564 394.19590725 420.08144591 389.9375 417.3125 C380.79740813 411.37448988 371.636144 405.47198429 362.4375 399.625 C346.36681872 389.40972467 330.30175996 379.188734 314.375 368.75 C305.49499254 362.93238104 296.52575265 357.27128243 287.51123047 351.66479492 C279.59540229 346.73801983 271.750896 341.7111178 263.94091797 336.61865234 C254.64563229 330.5584795 245.32637405 324.53929811 235.9375 318.625 C219.19278207 308.07510012 202.54253422 297.38266232 185.98291016 286.54467773 C179.91182819 282.57877961 173.79997266 278.68976528 167.63696289 274.86865234 C162.28463556 271.54585501 156.99553352 268.13121264 151.71337891 264.69824219 C145.81104116 260.86659566 139.87805445 257.08457299 133.9375 253.3125 C126.73928839 248.74091321 119.56193165 244.13992479 112.41015625 239.49609375 C106.60770232 235.73382211 100.77499046 232.02012235 94.9375 228.3125 C88.38133471 224.14720144 81.83240786 219.97186936 75.3125 215.75 C74.63977051 215.31445801 73.96704102 214.87891602 73.27392578 214.43017578 C69.4991266 211.98269967 65.73179096 209.52410924 61.96875 207.05859375 C56.9725825 203.78759861 51.95951146 200.54364322 46.9375 197.3125 C46.24881836 196.86567871 45.56013672 196.41885742 44.85058594 195.95849609 C28.49749691 185.40956748 9.9332631 177.19201406 -9.82568359 181.38916016 C-27.06070816 185.4751381 -41.10621462 195.62554639 -55.75146484 205.16308594 C-60.00779368 207.92615327 -64.28509124 210.65557159 -68.56396484 213.38354492 C-77.66022432 219.1829969 -86.72228024 225.03195928 -95.75 230.9375 C-105.8939718 237.57246353 -116.10407135 244.09826502 -126.34179688 250.58740234 C-130.85576421 253.4495428 -135.36556387 256.31822735 -139.875 259.1875 C-140.7712207 259.75774902 -141.66744141 260.32799805 -142.59082031 260.91552734 C-157.41145519 270.3499471 -172.21851372 279.80539754 -186.9543457 289.37182617 C-192.93231582 293.24488748 -198.95685041 297.04247809 -204.98461914 300.83740234 C-210.13790892 304.08577141 -215.26634463 307.36942591 -220.375 310.6875 C-227.67105952 315.42565696 -235.00403586 320.10384646 -242.34692383 324.76904297 C-249.42807171 329.26908658 -256.49767932 333.78687182 -263.5625 338.3125 C-271.55327542 343.43128222 -279.55270777 348.53602962 -287.5625 353.625 C-293.91342913 357.66076773 -300.25081359 361.71562531 -306.5625 365.8125 C-313.79903738 370.50968946 -321.07259998 375.14703861 -328.35424805 379.77392578 C-338.53607583 386.24493038 -348.69502929 392.75150017 -358.85400391 399.25830078 C-362.10366766 401.33885707 -365.35440786 403.41772139 -368.60546875 405.49609375 C-381.33965635 413.63339019 -381.33965635 413.63339019 -394.03515625 421.83081055 C-396.71294925 423.56918621 -399.39525433 425.30050486 -402.07861328 427.03027344 C-403.4487865 427.91584441 -404.81682202 428.80472855 -406.18310547 429.69628906 C-419.74481364 438.53273826 -430.00157009 443.56289416 -446.75 440.6875 C-456.08158522 438.20933176 -463.6730006 432.21709912 -469.0625 424.3125 C-473.04729069 416.34291862 -475.21252539 409.45363952 -475.20776367 400.56176758 C-475.21112228 399.66709778 -475.2144809 398.77242798 -475.21794128 397.85064697 C-475.22745734 394.88609435 -475.22939499 391.92159821 -475.23046875 388.95703125 C-475.23368183 386.89540076 -475.23704594 384.83377051 -475.24055481 382.7721405 C-475.24654838 378.44533764 -475.24839457 374.11855476 -475.24780273 369.79174805 C-475.24770132 364.25817803 -475.26133147 358.72473691 -475.27857494 353.1911974 C-475.28971859 348.930002 -475.29172118 344.66883748 -475.29119301 340.40762901 C-475.2923704 338.36837 -475.29677866 336.32911013 -475.30452538 334.28986549 C-475.3143691 331.42988831 -475.31142949 328.5701871 -475.30541992 325.71020508 C-475.31103943 324.87406174 -475.31665894 324.0379184 -475.32244873 323.17643738 C-475.23753454 307.20013379 -467.95765927 291.1816502 -457.0625 279.6875 C-450.66221642 273.60896981 -443.5255198 268.97580187 -436.0625 264.3125 C-434.59178257 263.37995474 -433.1217498 262.44632897 -431.65234375 261.51171875 C-428.49076332 259.50484043 -425.32361812 257.5071474 -422.15234375 255.515625 C-416.77499883 252.1365965 -411.41804753 248.72593618 -406.0625 245.3125 C-399.30152194 241.00504591 -392.53227205 236.71133999 -385.75 232.4375 C-377.32348799 227.12519208 -368.93269496 221.75786754 -360.54516602 216.38427734 C-346.97483471 207.69105908 -333.38343221 199.0314495 -319.75 190.4375 C-311.32357502 185.12505255 -302.93269626 179.75786837 -294.54516602 174.38427734 C-280.14239375 165.15779347 -265.71203686 155.97538463 -251.24462891 146.85058594 C-245.17410984 143.01990968 -239.1166788 139.16893978 -233.0625 135.3125 C-222.30963745 128.46372199 -211.53244638 121.65403647 -200.74902344 114.85351562 C-190.56967391 108.43302485 -180.40525863 101.98974978 -170.25463867 95.52392578 C-164.365339 91.7738906 -158.46793199 88.03707232 -152.5625 84.3125 C-142.04281048 77.67674839 -131.55256397 70.99495131 -121.0625 64.3125 C-110.63574481 57.67037808 -100.20880298 51.02907938 -89.75 44.4375 C-82.33287143 39.76222215 -74.94468034 35.04273714 -67.5625 30.3125 C-65.43103026 28.94915515 -63.29952036 27.5858731 -61.16796875 26.22265625 C-57.35190345 23.78154514 -53.54219076 21.33109418 -49.73828125 18.87109375 C-33.91289999 8.68193613 -19.38181713 -0.30609313 0 0 Z " fill="#0D0D0D" transform="translate(1407.0625,366.6875)"></path>
<path d="M0 0 C13.86 0 27.72 0 42 0 C45.403125 7.7034375 45.403125 7.7034375 48.875 15.5625 C54.79951388 28.9304919 60.84418137 42.2370453 67 55.5 C72.77905769 67.95201842 78.45688044 80.44115615 84 93 C89.69005953 105.89115888 95.51650691 118.71325607 101.4375 131.5 C102.20558122 133.15982388 102.97364787 134.81965449 103.74169922 136.47949219 C104.83714622 138.84632397 105.93271197 141.21310062 107.02850342 143.57977295 C109.90710561 149.79722143 112.78426427 156.0151308 115.625 162.25 C115.9852124 163.02923828 116.3454248 163.80847656 116.71655273 164.61132812 C118.06411213 167.58630594 119 169.6939474 119 173 C104.81 173 90.62 173 76 173 C73.89625 168.359375 71.7925 163.71875 69.625 158.9375 C68.9645166 157.48722412 68.3040332 156.03694824 67.62353516 154.54272461 C67.10065918 153.38264893 66.5777832 152.22257324 66.0390625 151.02734375 C65.50490723 149.84906006 64.97075195 148.67077637 64.42041016 147.45678711 C63 144 63 144 61 137 C34.27 137 7.54 137 -20 137 C-20.99 140.3 -21.98 143.6 -23 147 C-23.84233061 149.15513971 -24.72541695 151.29518756 -25.6640625 153.41015625 C-26.14617187 154.50134766 -26.62828125 155.59253906 -27.125 156.71679688 C-27.62 157.82087891 -28.115 158.92496094 -28.625 160.0625 C-29.12773438 161.20138672 -29.63046875 162.34027344 -30.1484375 163.51367188 C-33.85226739 171.85226739 -33.85226739 171.85226739 -35 173 C-38.10251201 173.08874135 -41.1826812 173.11518455 -44.28515625 173.09765625 C-45.21597519 173.0962413 -46.14679413 173.09482635 -47.1058197 173.09336853 C-50.09141191 173.08775172 -53.07693029 173.0751964 -56.0625 173.0625 C-58.08137913 173.05748716 -60.10025943 173.05292388 -62.11914062 173.04882812 C-67.07945572 173.03777683 -72.03971532 173.02050095 -77 173 C-70.98001084 158.8405458 -64.81233849 144.75326736 -58.54255676 130.70263672 C-56.44765883 126.0071825 -54.35934381 121.30882987 -52.2734375 116.609375 C-41.23914431 91.75314853 -41.23914431 91.75314853 -35.83203125 79.6953125 C-35.48602371 78.92359207 -35.14001617 78.15187164 -34.78352356 77.35676575 C-31.80183591 70.70674675 -31.80183591 70.70674675 -30.57546997 67.97262573 C-26.37861087 58.61191905 -22.2158361 49.23716924 -18.1015625 39.83984375 C-17.69471222 38.91081741 -17.28786194 37.98179108 -16.86868286 37.02461243 C-14.89984004 32.52649579 -12.93483669 28.02674841 -10.97509766 23.5246582 C-10.25948544 21.88621067 -9.54383004 20.24778199 -8.828125 18.609375 C-8.51420807 17.88487656 -8.20029114 17.16037811 -7.87686157 16.41392517 C-5.43136846 10.82440495 -2.73967963 5.47935925 0 0 Z " fill="#0D0D0D" transform="translate(1306,1255)"></path>
<path d="M0 0 C1.68742689 0.00025114 3.37485891 0.00581427 5.06225586 0.01586914 C6.24023743 0.01737976 6.24023743 0.01737976 7.4420166 0.0189209 C10.38705904 0.02416901 13.33208073 0.03813016 16.27709961 0.05102539 C22.85647461 0.07165039 29.43584961 0.09227539 36.21459961 0.11352539 C36.21459961 22.22352539 36.21459961 44.33352539 36.21459961 67.11352539 C60.96459961 67.11352539 85.71459961 67.11352539 111.21459961 67.11352539 C111.21459961 45.00352539 111.21459961 22.89352539 111.21459961 0.11352539 C124.74459961 0.11352539 138.27459961 0.11352539 152.21459961 0.11352539 C152.21459961 57.20352539 152.21459961 114.29352539 152.21459961 173.11352539 C139.01459961 173.11352539 125.81459961 173.11352539 112.21459961 173.11352539 C112.21459961 149.68352539 112.21459961 126.25352539 112.21459961 102.11352539 C87.13459961 102.11352539 62.05459961 102.11352539 36.21459961 102.11352539 C36.21459961 125.54352539 36.21459961 148.97352539 36.21459961 173.11352539 C22.68459961 173.11352539 9.15459961 173.11352539 -4.78540039 173.11352539 C-4.80794545 150.70478067 -4.82637841 128.29604508 -4.83721256 105.88729191 C-4.84237602 95.48328814 -4.84941965 85.0792919 -4.86083984 74.67529297 C-4.87078517 65.61062266 -4.87725346 56.54595779 -4.87948889 47.48128217 C-4.88079625 42.67849932 -4.88388372 37.87573205 -4.89113045 33.07295418 C-4.89788828 28.55785739 -4.90001784 24.04278271 -4.89850807 19.52768135 C-4.89878451 17.86555359 -4.90079103 16.20342513 -4.90460587 14.54130173 C-4.90953943 12.28202847 -4.90839995 10.02284005 -4.90565491 7.76356506 C-4.9065767 6.49609971 -4.90749849 5.22863436 -4.90844822 3.92276096 C-4.72051907 -0.36774349 -4.47273794 0.13413887 0 0 Z " fill="#0D0D0D" transform="translate(1059.785400390625,1254.886474609375)"></path>
<path d="M0 0 C13.2 0 26.4 0 40 0 C40.06800086 14.08315249 40.12294562 28.16619445 40.15543652 42.24947453 C40.171037 48.79015812 40.19217201 55.33072274 40.22631836 61.87133789 C40.25911289 68.19317722 40.27689518 74.51490272 40.28463173 80.8368206 C40.29013934 83.23873115 40.30089351 85.64063606 40.31719017 88.04249763 C40.39966253 100.71095465 40.35818207 112.712956 37 125 C36.78263687 125.79677658 36.56527374 126.59355316 36.34132385 127.41447449 C31.03556717 145.03341897 20.44388846 158.41409066 4.30078125 167.3984375 C-18.17552804 178.30410236 -45.72255041 179.34105812 -69.41015625 171.93359375 C-76.94951396 169.26175119 -83.52275037 165.67744871 -90 161 C-91.06154297 160.23429687 -91.06154297 160.23429687 -92.14453125 159.453125 C-104.87441217 149.30939346 -113.29078217 132.17908953 -115.73352432 116.36629486 C-116.79268733 106.96096374 -116.35517422 97.36138777 -116.29296875 87.9140625 C-116.2873642 85.40058649 -116.28309817 82.88710718 -116.28010559 80.37362671 C-116.26988313 74.47016904 -116.24632186 68.56688659 -116.21605712 62.66350019 C-116.17899294 55.27048896 -116.1630703 47.87745561 -116.14648438 40.484375 C-116.1144392 27.32281368 -116.06172697 14.16145561 -116 1 C-102.8 1 -89.6 1 -76 1 C-75.98541748 4.14821289 -75.97083496 7.29642578 -75.95581055 10.54003906 C-75.90534085 20.97355854 -75.83872406 31.40693072 -75.76428509 41.84030533 C-75.71966987 48.16240398 -75.68039423 54.4844395 -75.65356445 60.80664062 C-75.62744328 66.91461918 -75.58697858 73.02235363 -75.53681374 79.13018036 C-75.52020454 81.45357971 -75.50865341 83.77702123 -75.50238609 86.1004715 C-75.80613296 110.13472273 -75.80613296 110.13472273 -64.75 130.75 C-55.90583415 139.02844095 -44.84801561 140.71985575 -33.12109375 140.3828125 C-25.78317699 139.90630214 -18.61663595 137.09874073 -12.5625 132.9375 C-8.67788761 128.48440775 -6.37478244 123.37902528 -4 118 C-3.63390625 117.175 -3.2678125 116.35 -2.890625 115.5 C-0.6838343 109.3054998 -0.83284014 102.9876961 -0.79467773 96.49658203 C-0.78477814 95.45207382 -0.77487854 94.40756561 -0.76467896 93.33140564 C-0.73317432 89.89023073 -0.7083502 86.44904202 -0.68359375 83.0078125 C-0.6630147 80.61741789 -0.64201797 78.22702683 -0.62062073 75.8366394 C-0.56549837 69.55341481 -0.51604576 63.2701579 -0.46777344 56.98687744 C-0.41748653 50.57195164 -0.36183802 44.1570726 -0.30664062 37.7421875 C-0.19917936 25.16149684 -0.09820336 12.58076633 0 0 Z " fill="#0D0D0D" transform="translate(1554,1255)"></path>
<path d="M0 0 C1.23707246 2.69039795 1.04489903 3.86222747 0.11962891 6.70141602 C-0.34008301 7.70873779 -0.79979492 8.71605957 -1.2734375 9.75390625 C-1.7684375 10.85541016 -2.2634375 11.95691406 -2.7734375 13.09179688 C-3.30195312 14.23712891 -3.83046875 15.38246094 -4.375 16.5625 C-5.40448804 18.83425394 -6.43317183 21.10637257 -7.4609375 23.37890625 C-7.92290527 24.3851001 -8.38487305 25.39129395 -8.86083984 26.42797852 C-10.06517572 29.0371213 -10.06517572 29.0371213 -11 32 C-13.8841888 30.87527773 -16.71311072 29.68043824 -19.5390625 28.4140625 C-38.12175466 20.18183359 -59.15900469 14.82412225 -79 22 C-83.30991337 24.30888216 -86.6169968 26.69226344 -89 31 C-89.81852022 37.09751577 -89.82587091 41.96595933 -86 47 C-75.7155067 54.54558944 -61.55997538 56.47855627 -49.34375 58.953125 C-31.33591106 62.63521406 -9.58602303 68.71868464 1.72265625 84.38671875 C6.69559929 92.36542098 9.55008751 99.42634702 9.375 108.875 C9.36557373 109.66583984 9.35614746 110.45667969 9.34643555 111.27148438 C9.19208545 117.25854616 8.40388978 122.47202674 6 128 C5.67128906 128.8146875 5.34257813 129.629375 5.00390625 130.46875 C0.40001241 140.79166768 -7.24534824 148.45598929 -17 154 C-17.63421875 154.36609375 -18.2684375 154.7321875 -18.921875 155.109375 C-33.61459429 163.00215809 -49.7199359 164.39766889 -66.125 164.375 C-66.79709503 164.37445618 -67.46919006 164.37391235 -68.16165161 164.37335205 C-89.19427254 164.29557674 -119.16589167 159.83410833 -135 144 C-134.64856397 139.58250806 -133.29825831 135.96393232 -131.49609375 131.9453125 C-131.00302734 130.83671875 -130.50996094 129.728125 -130.00195312 128.5859375 C-129.48568359 127.44382812 -128.96941406 126.30171875 -128.4375 125.125 C-127.65729492 123.37703125 -127.65729492 123.37703125 -126.86132812 121.59375 C-125.58039143 118.72633208 -124.29311475 115.86194152 -123 113 C-118.26028356 113 -116.73131285 114.15288249 -112.75 116.625 C-93.60641964 128.01594935 -70.4036181 133.56099475 -48.3125 128.875 C-43.08262741 127.33982673 -38.88841551 124.82449635 -35 121 C-32.89749009 116.79498018 -33.47402164 111.5686725 -34 107 C-41.67217605 95.49173593 -62.44858546 93.29124661 -75.0625 90.5625 C-93.34952824 86.55870965 -113.46557114 80.26529232 -124.88671875 64.375 C-132.11034287 52.62130652 -133.14466283 39.43300255 -130.59716797 25.85253906 C-129.5757804 22.26441142 -127.95465996 19.15831898 -126 16 C-125.29617188 14.78183594 -125.29617188 14.78183594 -124.578125 13.5390625 C-115.69614552 -0.83446343 -101.99973816 -7.91909513 -86 -12 C-85.26136719 -12.21269531 -84.52273438 -12.42539063 -83.76171875 -12.64453125 C-57.93721866 -19.83812947 -22.47852893 -15.10962772 0 0 Z " fill="#0D0D0D" transform="translate(1754,1267)"></path>
</g>
</svg>